<?xml version="1.0" standalone="no"?>
<!DOCTYPE svg PUBLIC "-//W3C//DTD SVG 1.1//EN" "http://www.w3.org/Graphics/SVG/1.1/DTD/svg11.dtd" >
<!--
2013-9-30: Created.
-->
<svg>
<metadata>
Created by iconfont
</metadata>
<defs>

<font id="iconfont" horiz-adv-x="1024" >
  <font-face
    font-family="iconfont"
    font-weight="500"
    font-stretch="normal"
    units-per-em="1024"
    ascent="896"
    descent="-128"
  />
    <missing-glyph />
    
    <glyph glyph-name="youhuiquan" unicode="&#59143;" d="M512 588.8v-51.2h-51.2v-51.2h102.4v102.4zM409.6 486.4v51.2h-51.2v51.2h-51.2v-102.4h51.2zM307.2 384h102.4v-51.2h-102.4v-51.2h102.4v-102.4h51.2v102.4h102.4v51.2h-102.4v51.2h102.4v51.2H307.2zM102.4 640h102.4v-512H102.4zM665.6 435.2h51.2v-102.4h-51.2zM768 691.2c0-42.666667-34.133333-76.8-76.8-76.8S614.4 648.533333 614.4 691.2H51.2v-614.4h563.2c0 42.666667 34.133333 76.8 76.8 76.8s76.8-34.133333 76.8-76.8h204.8V691.2H768zM204.8 128H102.4V640h102.4v-512z m716.8 0h-112.64c-17.066667 37.546667-51.2 64.853333-92.16 73.386667V281.6h-51.2v-80.213333c-40.96-8.533333-75.093333-35.84-92.16-73.386667H256V640h317.44c17.066667-37.546667 51.2-64.853333 92.16-73.386667V486.4h51.2v80.213333c40.96 8.533333 75.093333 35.84 92.16 73.386667H921.6v-512z"  horiz-adv-x="1024" />

    
    <glyph glyph-name="taolunduihua" unicode="&#59145;" d="M819.2 179.20000000000005H460.8v-51.2h358.4zM819.2 281.6H614.4v-51.2h204.8zM972.8 76.79999999999995V281.6c0 66.56-42.666667 122.88-102.4 145.066667V640c0 85.333333-68.266667 153.6-153.6 153.6H307.2c-85.333333 0-153.6-68.266667-153.6-153.6v-307.2l-153.6-102.4h307.2v-102.4c0-85.333333 68.266667-153.6 153.6-153.6h665.6l-153.6 102.4zM460.8 435.2c-85.333333 0-153.6-68.266667-153.6-153.6H168.96l13.653333 8.533333 22.186667 15.36V640c0 56.32 46.08 102.4 102.4 102.4h409.6c56.32 0 102.4-46.08 102.4-102.4v-204.8H460.8z m0-409.6c-56.32 0-102.4 46.08-102.4 102.4v153.6c0 56.32 46.08 102.4 102.4 102.4h358.4c56.32 0 102.4-46.08 102.4-102.4v-232.106667l22.186667-15.36 13.653333-8.533333H460.8zM204.8 332.79999999999995v-27.306667l-22.186667-15.36-13.653333-8.533333H307.2c0 85.333333 68.266667 153.6 153.6 153.6h358.4V640c0 56.32-46.08 102.4-102.4 102.4H307.2c-56.32 0-102.4-46.08-102.4-102.4v-307.2zM716.8 537.6H307.2v-51.2h409.6zM512 640H307.2v-51.2h204.8z"  horiz-adv-x="1126" />

    
    <glyph glyph-name="wenjianjiadakaizhuangtai" unicode="&#59146;" d="M204.8 486.4v153.6h-102.4c-29.013333 0-51.2-22.186667-51.2-51.2v-102.4h153.6zM1054.72 588.8h-133.12V759.466667c0 18.773333-15.36 34.133333-34.133333 34.133333h-648.533334c-18.773333 0-34.133333-15.36-34.133333-34.133333v-68.266667h-102.4c-56.32 0-102.4-46.08-102.4-102.4v-512c0-56.32 46.08-102.4 102.4-102.4h745.813333c44.373333 0 83.626667 29.013333 97.28 69.973333L1104.213333 520.5333330000001c10.24 34.133333-13.653333 68.266667-49.493333 68.266667zM870.4 742.4v-153.6H363.52c-35.84 0-66.56-20.48-83.626667-51.2-6.826667-11.946667-15.36-22.186667-25.6-30.72V742.4h616.106667zM197.973333 486.4H51.2v102.4c0 29.013333 22.186667 51.2 51.2 51.2h102.4v-153.6H197.973333zM896 61.440000000000055c-6.826667-20.48-27.306667-35.84-47.786667-35.84H102.4c-29.013333 0-51.2 22.186667-51.2 51.2V435.2H197.973333c54.613333 0 104.106667 30.72 128 80.213333 6.826667 13.653333 20.48 22.186667 37.546667 22.186667h691.2l-158.72-476.16zM358.4 691.2h409.6v-51.2h-409.6zM768 691.2h-409.6v-51.2h409.6v51.2zM793.6 409.6m-25.6 0a25.6 25.6 0 1 1 51.2 0 25.6 25.6 0 1 1-51.2 0ZM793.6 435.2c13.653333 0 25.6-11.946667 25.6-25.6s-11.946667-25.6-25.6-25.6-25.6 11.946667-25.6 25.6 11.946667 25.6 25.6 25.6m0 51.2c-42.666667 0-76.8-34.133333-76.8-76.8s34.133333-76.8 76.8-76.8 76.8 34.133333 76.8 76.8-34.133333 76.8-76.8 76.8z"  horiz-adv-x="1106" />

    
    <glyph glyph-name="wenjiansaomiao" unicode="&#59147;" d="M256 213.333333h512v-153.6H256zM785.066667 8.533333c18.773333 0 34.133333 15.36 34.133333 34.133334V264.533333H204.8v-221.866666c0-18.773333 15.36-34.133333 34.133333-34.133334h546.133334zM256 213.333333h512v-153.6H256v153.6zM204.8 742.4v-324.266667h614.4V742.4c0 18.773333-15.36 34.133333-34.133333 34.133333H238.933333c-18.773333 0-34.133333-15.36-34.133333-34.133333z m51.2-17.066667h512v-256H256V725.333333zM358.4 162.133333h102.4v-51.2h-102.4zM358.4 571.733333h307.2v-51.2H358.4zM358.4 674.133333h256v-51.2H358.4zM102.4 366.933333h819.2v-51.2H102.4zM870.4-42.666667h-153.6v-51.2h204.8V110.933333h-51.2zM870.4 878.933333h-153.6v-51.2h153.6v-153.6h51.2V878.933333zM153.6 110.933333H102.4v-204.8h204.8v51.2H153.6zM153.6 827.733333h153.6V878.933333H102.4v-204.8h51.2z"  horiz-adv-x="1024" />

    
    <glyph glyph-name="wenjianfensui" unicode="&#59148;" d="M699.733333 537.6H341.333333v-51.2h358.4v51.2zM699.733333 640H341.333333v-51.2h358.4v51.2zM597.333333 742.4H341.333333v-51.2h256V742.4zM904.533333 230.4v153.6H136.533333v-153.6h51.2v102.4h665.6v-102.4zM853.333333 435.2V844.8H187.733333v-409.6H85.333333v-256h102.4v-204.8h153.6v-51.2h204.8v51.2h102.4v-51.2h204.8V179.2h102.4V435.2h-102.4zM238.933333 793.6h563.2v-358.4H238.933333V793.6z m102.4-768h-102.4V281.6h102.4v-256z m153.6-51.2h-102.4V281.6h102.4v-307.2z m153.6 51.2h-102.4V281.6h102.4v-256z m153.6-51.2h-102.4V281.6h102.4v-307.2z m102.4 256h-51.2v102.4H187.733333v-102.4H136.533333v153.6h768v-153.6z"  horiz-adv-x="1024" />

    
    <glyph glyph-name="baozhuang" unicode="&#59149;" d="M256 674.133333h102.4v-563.2h-102.4zM409.6 674.133333h102.4v-563.2h-102.4zM102.4 674.133333h102.4v-563.2H102.4zM256 674.133333h102.4v-563.2h-102.4zM563.2 674.133333v-563.2h358.4V674.133333h-102.4v-256h-153.6V674.133333h-102.4z m256-460.8v-51.2h-153.6v51.2h153.6zM716.8 674.133333h51.2v-204.8h-51.2zM51.2 725.333333v-665.6h921.6V725.333333H51.2z m153.6-614.4H102.4V674.133333h102.4v-563.2z m153.6 0h-102.4V674.133333h102.4v-563.2z m153.6 0h-102.4V674.133333h102.4v-563.2z m204.8 563.2h51.2v-204.8h-51.2V674.133333z m204.8-563.2H563.2V674.133333h102.4v-256h153.6V674.133333h102.4v-563.2zM665.6 213.333333h153.6v-51.2h-153.6zM563.2 674.133333v-563.2h358.4V674.133333h-102.4v-256h-153.6V674.133333h-102.4z m256-460.8v-51.2h-153.6v51.2h153.6zM716.8 674.133333h51.2v-204.8h-51.2zM716.8 674.133333h51.2v-204.8h-51.2z"  horiz-adv-x="1024" />

    
    <glyph glyph-name="qianbao-guanbi" unicode="&#59151;" d="M733.866667 537.6h51.2v102.4c0 29.013333-22.186667 51.2-51.2 51.2v-153.6zM785.066667 281.6h-51.2v-204.8c29.013333 0 51.2 22.186667 51.2 51.2v153.6zM870.4 537.6h-34.133333v102.4c0 56.32-46.08 102.4-102.4 102.4h-13.653334c-17.066667 30.72-51.2 51.2-88.746666 51.2H221.866667c-56.32 0-102.4-46.08-102.4-102.4v-614.4c0-56.32 46.08-102.4 102.4-102.4h409.6c37.546667 0 71.68 20.48 88.746666 51.2h13.653334c56.32 0 102.4 46.08 102.4 102.4v153.6h34.133333c10.24 0 17.066667 6.826667 17.066667 17.066667V520.533333c0 10.24-6.826667 17.066667-17.066667 17.066667z m-85.333333 102.4v-102.4h-51.2v153.6c29.013333 0 51.2-22.186667 51.2-51.2z m-102.4-563.2c0-29.013333-22.186667-51.2-51.2-51.2H221.866667c-29.013333 0-51.2 22.186667-51.2 51.2V691.2c0 29.013333 22.186667 51.2 51.2 51.2h409.6c29.013333 0 51.2-22.186667 51.2-51.2v-153.6h-136.533334c-10.24 0-17.066667-6.826667-17.066666-17.066667v-221.866666c0-10.24 6.826667-17.066667 17.066666-17.066667h136.533334v-204.8z m102.4 51.2c0-29.013333-22.186667-51.2-51.2-51.2V281.6h51.2v-153.6z m51.2 204.8H580.266667v153.6h256v-153.6zM733.866667 435.2h-102.4v-51.2h102.4v51.2z"  horiz-adv-x="1024" />

    
    <glyph glyph-name="lishibiaodan" unicode="&#59153;" d="M187.733333 128h153.6v-51.2h-153.6zM187.733333 588.8h204.8v-51.2H187.733333zM750.933333 638.293333V793.6h-153.6V844.8H187.733333v-51.2H34.133333v-870.4h716.8v155.306667c143.36 13.653333 256 133.12 256 279.893333 0 146.773333-112.64 267.946667-256 279.893333zM238.933333 793.6h307.2v-51.2H238.933333V793.6z m460.8-819.2H85.333333V742.4h102.4v-51.2h409.6V742.4h102.4v-104.106667c-117.76-10.24-213.333333-93.866667-245.76-203.093333H187.733333v-51.2h257.706667c0-8.533333-1.706667-17.066667-1.706667-25.6 0-27.306667 3.413333-52.906667 10.24-76.8H187.733333v-51.2h286.72c42.666667-83.626667 126.293333-143.36 225.28-151.893333V-25.6z m25.6 153.6C599.04 128 494.933333 232.106667 494.933333 358.4S599.04 588.8 725.333333 588.8 955.733333 484.693333 955.733333 358.4 851.626667 128 725.333333 128zM750.933333 384v153.6h-51.2v-204.8h204.8v51.2zM238.933333 793.6h307.2v-51.2H238.933333z"  horiz-adv-x="1024" />

    
    <glyph glyph-name="xiangji" unicode="&#59154;" d="M785.066667 384c29.013333 0 51.2-22.186667 51.2-51.2s-22.186667-51.2-51.2-51.2-51.2 22.186667-51.2 51.2 22.186667 51.2 51.2 51.2m0 51.2c-56.32 0-102.4-46.08-102.4-102.4s46.08-102.4 102.4-102.4 102.4 46.08 102.4 102.4-46.08 102.4-102.4 102.4zM477.866667 588.8h-153.6v-51.2h153.6v51.2zM68.266667 640h153.6v-614.4H68.266667zM580.266667 332.8c0 58.026667 23.893333 110.933333 64.853333 148.48-66.56-17.066667-116.053333-76.8-116.053333-148.48s49.493333-131.413333 116.053333-148.48C604.16 221.866667 580.266667 274.773333 580.266667 332.8zM938.666667 467.626667V657.066667c0 18.773333-15.36 34.133333-34.133334 34.133333H477.866667V776.533333c0 10.24-6.826667 17.066667-17.066667 17.066667H290.133333c-10.24 0-17.066667-6.826667-17.066666-17.066667v-85.333333H51.2c-18.773333 0-34.133333-15.36-34.133333-34.133333v-648.533334c0-18.773333 15.36-34.133333 34.133333-34.133333h853.333333c18.773333 0 34.133333 15.36 34.133334 34.133333V197.973333c32.426667 35.84 51.2 83.626667 51.2 134.826667s-18.773333 98.986667-51.2 134.826667zM221.866667 25.6H68.266667V640h153.6v-614.4z m102.4 716.8h102.4v-51.2h-102.4V742.4z m563.2-716.8H273.066667V640h614.4v-129.706667c-30.72 17.066667-64.853333 27.306667-102.4 27.306667h-102.4c-54.613333 0-104.106667-22.186667-139.946667-56.32-66.56-17.066667-116.053333-76.8-116.053333-148.48 0-71.68 49.493333-131.413333 116.053333-148.48 37.546667-34.133333 85.333333-56.32 139.946667-56.32h102.4c37.546667 0 71.68 10.24 102.4 27.306667V25.6zM645.12 481.28C604.16 443.733333 580.266667 390.826667 580.266667 332.8s23.893333-110.933333 64.853333-148.48c-66.56 17.066667-116.053333 76.8-116.053333 148.48s49.493333 131.413333 116.053333 148.48zM785.066667 179.2c-85.333333 0-153.6 68.266667-153.6 153.6s68.266667 153.6 153.6 153.6 153.6-68.266667 153.6-153.6-68.266667-153.6-153.6-153.6z"  horiz-adv-x="1024" />

    
    <glyph glyph-name="bingzhuangtutongji" unicode="&#59155;" d="M512 776.533333C300.373333 776.533333 128 604.16 128 392.533333S300.373333 8.533333 512 8.533333s384 172.373333 384 384S723.626667 776.533333 512 776.533333z m331.093333-358.4H573.44l191.146667 191.146667c44.373333-52.906667 73.386667-119.466667 78.506666-191.146667z m-663.893333-25.6C179.2 576.853333 327.68 725.333333 512 725.333333c81.92 0 158.72-30.72 216.746667-80.213333L493.226667 411.306667c-1.706667-1.706667-3.413333-5.12-5.12-8.533334-1.706667-3.413333-1.706667-6.826667-1.706667-8.533333v-331.093333c-172.373333 10.24-307.2 155.306667-307.2 329.386666z m358.4-331.093333V366.933333h305.493333c-11.946667-163.84-141.653333-293.546667-305.493333-305.493333zM764.586667 609.28L573.44 418.133333h269.653333c-5.12 71.68-34.133333 138.24-78.506666 191.146667z"  horiz-adv-x="1024" />

    
    <glyph glyph-name="zhexiantutongji" unicode="&#59156;" d="M665.6 102.4v358.4h-51.2v-358.4H409.6v153.6h-51.2v-153.6H51.2v-51.2h921.6v51.2zM95.573333 339.626667l112.64 112.64c10.24-5.12 22.186667-8.533333 32.426667-8.533334s22.186667 3.413333 32.426667 8.533334l42.666666-42.666667c-13.653333-29.013333-8.533333-63.146667 15.36-87.04 15.36-15.36 34.133333-22.186667 54.613334-22.186667s39.253333 6.826667 54.613333 22.186667c23.893333 23.893333 29.013333 58.026667 15.36 87.04l136.533333 136.533333c10.24-5.12 22.186667-8.533333 32.426667-8.533333 11.946667 0 22.186667 3.413333 32.426667 8.533333l112.64-112.64 180.906666 180.906667-35.84 35.84-146.773333-145.066667-75.093333 75.093334c13.653333 29.013333 8.533333 63.146667-15.36 87.04-15.36 15.36-34.133333 22.186667-54.613334 22.186666-20.48 0-39.253333-6.826667-54.613333-22.186666-23.893333-23.893333-29.013333-58.026667-15.36-87.04l-136.533333-136.533334c-10.24 5.12-22.186667 8.533333-32.426667 8.533334s-22.186667-3.413333-32.426667-8.533334L308.906667 486.4c13.653333 29.013333 8.533333 63.146667-15.36 87.04-15.36 15.36-34.133333 22.186667-54.613334 22.186667-20.48 0-39.253333-6.826667-54.613333-22.186667-22.186667-22.186667-27.306667-58.026667-13.653333-87.04l-112.64-112.64 37.546666-34.133333z m510.293334 291.84c6.826667 6.826667 13.653333 6.826667 18.773333 6.826666s11.946667-1.706667 18.773333-6.826666 6.826667-13.653333 6.826667-18.773334-1.706667-11.946667-6.826667-18.773333-13.653333-6.826667-18.773333-6.826667-11.946667 1.706667-18.773333 6.826667-8.533333 15.36-8.533334 18.773333 1.706667 11.946667 8.533334 18.773334z m-238.933334-238.933334c6.826667 6.826667 13.653333 6.826667 18.773334 6.826667s11.946667-1.706667 18.773333-6.826667 6.826667-13.653333 6.826667-18.773333-1.706667-11.946667-6.826667-18.773333-15.36-5.12-18.773333-5.12-11.946667 1.706667-18.773334 6.826666-6.826667 13.653333-6.826666 18.773334 0 11.946667 6.826666 17.066666zM221.866667 537.6c6.826667 6.826667 13.653333 6.826667 18.773333 6.826667s11.946667-1.706667 18.773333-6.826667 6.826667-13.653333 6.826667-18.773333-1.706667-11.946667-6.826667-18.773334-13.653333-6.826667-18.773333-6.826666-11.946667 1.706667-18.773333 6.826666-6.826667 13.653333-6.826667 18.773334 0 11.946667 6.826667 18.773333z"  horiz-adv-x="1024" />

    
    <glyph glyph-name="zhuzhuangtutongji" unicode="&#59157;" d="M716.8 537.6h102.4v-460.8h-102.4zM460.8 691.2h102.4v-614.4h-102.4zM870.4 76.8V588.8H665.6v-512h-51.2V742.4H409.6v-665.6h-51.2V435.2H153.6v-358.4H51.2v-51.2h921.6v51.2h-102.4z m-665.6 0V384h102.4v-307.2h-102.4z m256 0V691.2h102.4v-614.4h-102.4z m256 0V537.6h102.4v-460.8h-102.4zM204.8 384h102.4v-307.2h-102.4z"  horiz-adv-x="1024" />

    
    <glyph glyph-name="huowu" unicode="&#59158;" d="M580.266667 571.733333h153.6v-51.2h-153.6zM733.866667 571.733333v-51.2h-153.6v51.2h153.6m51.2 51.2H529.066667v-153.6h256v153.6zM273.066667 674.133333v-256H119.466667V674.133333H68.266667v-563.2h256V674.133333zM17.066667 725.333333v-665.6h972.8V725.333333H17.066667z m204.8-51.2v-204.8h-51.2V674.133333h51.2z m102.4-563.2H68.266667V674.133333h51.2v-256h153.6V674.133333h51.2v-563.2z m614.4 0H375.466667V674.133333h563.2v-563.2z"  horiz-adv-x="1024" />

    
    <glyph glyph-name="qianbao-dakai" unicode="&#59159;" d="M477.866667 435.2h-102.4v-51.2h102.4v51.2zM682.666667 384h51.2v-51.2h-51.2zM682.666667 486.4h51.2v-51.2h-51.2zM785.066667 640c0 56.32-46.08 102.4-102.4 102.4h-167.253334c-17.066667 30.72-51.2 51.2-88.746666 51.2H170.666667c-56.32 0-102.4-46.08-102.4-102.4v-614.4c0-56.32 46.08-102.4 102.4-102.4h256c37.546667 0 71.68 20.48 88.746666 51.2H682.666667c56.32 0 102.4 46.08 102.4 102.4v51.2h153.6V640h-153.6z m-256 51.2h153.6c29.013333 0 51.2-22.186667 51.2-51.2 0-13.653333-11.946667-25.6-25.6-25.6S682.666667 626.346667 682.666667 640h-153.6v51.2zM324.266667 332.8v153.6h204.8v-153.6H324.266667z m102.4-307.2H170.666667c-29.013333 0-51.2 22.186667-51.2 51.2V691.2c0 29.013333 22.186667 51.2 51.2 51.2h256c29.013333 0 51.2-22.186667 51.2-51.2v-153.6H290.133333c-10.24 0-17.066667-6.826667-17.066666-17.066667v-221.866666c0-10.24 6.826667-17.066667 17.066666-17.066667h187.733334v-204.8c0-29.013333-22.186667-51.2-51.2-51.2z m307.2 102.4c0-29.013333-22.186667-51.2-51.2-51.2h-153.6v102.4h153.6c0 13.653333 11.946667 25.6 25.6 25.6s25.6-11.946667 25.6-25.6v-51.2z m153.6 102.4h-121.173334c-8.533333 10.24-18.773333 17.066667-32.426666 20.48V281.6h-51.2v-30.72c-11.946667-5.12-23.893333-11.946667-32.426667-20.48H529.066667v51.2h34.133333c10.24 0 17.066667 6.826667 17.066667 17.066667V520.533333c0 10.24-6.826667 17.066667-17.066667 17.066667h-34.133333v51.2h121.173333c8.533333-10.24 18.773333-17.066667 32.426667-20.48V537.6h51.2v30.72c11.946667 5.12 23.893333 11.946667 32.426666 20.48H887.466667v-358.4zM733.866667 128v51.2c0 13.653333-11.946667 25.6-25.6 25.6S682.666667 192.853333 682.666667 179.2h-153.6v-102.4h153.6c29.013333 0 51.2 22.186667 51.2 51.2zM682.666667 384h51.2v-51.2h-51.2zM682.666667 486.4h51.2v-51.2h-51.2zM682.666667 640c0-13.653333 11.946667-25.6 25.6-25.6S733.866667 626.346667 733.866667 640c0 29.013333-22.186667 51.2-51.2 51.2h-153.6v-51.2h153.6z"  horiz-adv-x="1024" />

    
    <glyph glyph-name="dayin" unicode="&#59160;" d="M256 691.2h512v-51.2H256zM256 384h512v-307.2H256zM938.666667 640h-119.466667v85.333333c0 10.24-6.826667 17.066667-17.066667 17.066667H221.866667c-10.24 0-17.066667-6.826667-17.066667-17.066667v-85.333333H85.333333c-18.773333 0-34.133333-15.36-34.133333-34.133333v-443.733334c0-18.773333 15.36-34.133333 34.133333-34.133333h119.466667v-85.333333c0-10.24 6.826667-17.066667 17.066667-17.066667h580.266666c10.24 0 17.066667 6.826667 17.066667 17.066667v85.333333h119.466667c18.773333 0 34.133333 15.36 34.133333 34.133333V605.866667c0 18.773333-15.36 34.133333-34.133333 34.133333z m-682.666667 51.2h512v-51.2H256v51.2z m512-614.4H256V384h512v-307.2z m153.6 102.4h-102.4V435.2H204.8v-256H102.4V588.8h819.2v-409.6zM358.4 537.6h-153.6v-51.2h153.6v51.2z"  horiz-adv-x="1024" />

    
    <glyph glyph-name="wenjianjiaguanbizhuangtai" unicode="&#59161;" d="M870.4 640h-102.4l-75.093333 75.093333c-17.066667 17.066667-40.96 27.306667-64.853334 27.306667H153.6c-56.32 0-102.4-46.08-102.4-102.4v-512c0-56.32 46.08-102.4 102.4-102.4h716.8c56.32 0 102.4 46.08 102.4 102.4V537.6c0 56.32-46.08 102.4-102.4 102.4zM102.4 537.6v102.4c0 29.013333 22.186667 51.2 51.2 51.2h474.453333c10.24 0 22.186667-5.12 29.013334-11.946667l39.253333-39.253333H262.826667c-35.84 0-66.56-20.48-83.626667-51.2-15.36-30.72-47.786667-51.2-83.626667-51.2H102.4z m819.2-409.6c0-29.013333-22.186667-51.2-51.2-51.2H153.6c-29.013333 0-51.2 22.186667-51.2 51.2V486.4c52.906667 1.706667 98.986667 32.426667 122.88 80.213333 6.826667 13.653333 20.48 22.186667 37.546667 22.186667H870.4c29.013333 0 51.2-22.186667 51.2-51.2v-409.6zM179.2 588.8c15.36 30.72 47.786667 51.2 83.626667 51.2h433.493333l-39.253333 39.253333c-8.533333 6.826667-18.773333 11.946667-29.013334 11.946667H153.6c-29.013333 0-51.2-22.186667-51.2-51.2v-102.4h-6.826667c35.84 0 68.266667 20.48 83.626667 51.2zM640 460.8m-25.6 0a25.6 25.6 0 1 1 51.2 0 25.6 25.6 0 1 1-51.2 0ZM640 486.4c13.653333 0 25.6-11.946667 25.6-25.6s-11.946667-25.6-25.6-25.6-25.6 11.946667-25.6 25.6 11.946667 25.6 25.6 25.6m0 51.2C597.333333 537.6 563.2 503.466667 563.2 460.8s34.133333-76.8 76.8-76.8 76.8 34.133333 76.8 76.8-34.133333 76.8-76.8 76.8z"  horiz-adv-x="1024" />

    
    <glyph glyph-name="xiugai" unicode="&#59162;" d="M305.493333 218.453333c-6.826667 6.826667-13.653333 6.826667-18.773333 6.826667-3.413333 0-6.826667 0-11.946667-3.413333L249.173333 162.133333l61.44 25.6c5.12 10.24 3.413333 22.186667-5.12 30.72zM216.746667 92.16l126.293333 54.613333c30.72 30.72 30.72 78.506667 0 109.226667-15.36 15.36-34.133333 22.186667-54.613333 22.186667-20.48 0-39.253333-6.826667-54.613334-22.186667L179.2 128l35.84-35.84H153.6v-51.2h716.8v51.2H216.746667z m58.026666 131.413333c5.12 3.413333 10.24 3.413333 11.946667 3.413334 3.413333 0 11.946667-1.706667 18.773333-6.826667 8.533333-8.533333 10.24-20.48 5.12-30.72L249.173333 162.133333l25.6 61.44zM377.173333 218.453333c5.12-5.12 11.946667-6.826667 18.773334-6.826666 6.826667 0 13.653333 1.706667 18.773333 6.826666l397.653333 397.653334c10.24 10.24 10.24 25.6 0 35.84L738.986667 725.333333c-5.12 5.12-11.946667 6.826667-18.773334 6.826667-6.826667 0-13.653333-1.706667-18.773333-6.826667L305.493333 327.68c-10.24-10.24-10.24-25.6 0-35.84l71.68-73.386667z m344.746667 452.266667l35.84-35.84-290.133333-290.133333-35.84 35.84 290.133333 290.133333zM395.946667 344.746667l35.84-35.84-35.84-35.84-35.84 35.84 35.84 35.84z"  horiz-adv-x="1024" />

    
    <glyph glyph-name="wenjianfuzhi" unicode="&#59163;" d="M631.466667 230.4h-153.6v-51.2h153.6v51.2zM785.066667 384H477.866667v-51.2h307.2v51.2zM785.066667 537.6H477.866667v-51.2h307.2v51.2zM904.533333 691.2H682.666667V810.666667c0 18.773333-15.36 34.133333-34.133334 34.133333H102.4c-18.773333 0-34.133333-15.36-34.133333-34.133333v-699.733334c0-18.773333 15.36-34.133333 34.133333-34.133333h221.866667v-119.466667c0-18.773333 15.36-34.133333 34.133333-34.133333h546.133333c18.773333 0 34.133333 15.36 34.133334 34.133333V657.066667c0 18.773333-15.36 34.133333-34.133334 34.133333zM324.266667 486.4v-102.4h-102.4v-51.2h102.4v-204.8H119.466667V793.6h512v-102.4H221.866667v-51.2h102.4v-102.4h-102.4v-51.2h102.4z m563.2-512H375.466667V640h512v-665.6zM221.866667 332.8v51.2h102.4v102.4h-102.4v51.2h102.4v102.4h-102.4v51.2h409.6V793.6H119.466667v-665.6h204.8V332.8z"  horiz-adv-x="1024" />

    
    <glyph glyph-name="wenjianxiugai" unicode="&#59164;" d="M358.4 162.133333h-102.4v-51.2h102.4v51.2zM878.933333 529.066667c-3.413333 0-11.946667-1.706667-18.773333-6.826667l-17.066667-18.773333 35.84-35.84 18.773334 18.773333c6.826667 6.826667 6.826667 13.653333 6.826666 17.066667s-1.706667 11.946667-6.826666 18.773333-13.653333 6.826667-18.773334 6.826667zM807.253333 467.626667L535.893333 196.266667c-6.826667-6.826667-6.826667-13.653333-6.826666-18.773334 0-3.413333 1.706667-11.946667 6.826666-18.773333 6.826667-6.826667 13.653333-6.826667 18.773334-6.826667 3.413333 0 11.946667 1.706667 18.773333 6.826667l271.36 271.36-37.546667 37.546667zM256 469.333333h307.2v-51.2H256zM256 622.933333h256v-51.2H256zM933.546667 558.08c-15.36 15.36-34.133333 22.186667-54.613334 22.186667s-39.253333-6.826667-54.613333-22.186667L716.8 450.56V742.4c0 18.773333-15.36 34.133333-34.133333 34.133333H136.533333c-18.773333 0-34.133333-15.36-34.133333-34.133333v-750.933333c0-18.773333 15.36-34.133333 34.133333-34.133334h546.133334c18.773333 0 34.133333 15.36 34.133333 34.133334V232.106667l216.746667 216.746666c30.72 30.72 30.72 80.213333 0 109.226667zM665.6 8.533333H153.6V725.333333h512v-325.973333l-102.4-102.4V315.733333H256v-51.2h274.773333l-32.426666-32.426666c-30.72-30.72-30.72-78.506667 0-109.226667 15.36-15.36 34.133333-22.186667 54.613333-22.186667 20.48 0 39.253333 6.826667 54.613333 22.186667l58.026667 58.026667V8.533333z m-93.866667 151.893334c-6.826667-6.826667-13.653333-6.826667-18.773333-6.826667-3.413333 0-11.946667 1.706667-18.773333 6.826667-6.826667 6.826667-6.826667 13.653333-6.826667 18.773333 0 3.413333 1.706667 11.946667 6.826667 18.773333L805.546667 469.333333l35.84-35.84-269.653334-273.066666zM897.706667 486.4l-18.773334-18.773333-35.84 35.84 18.773334 18.773333c6.826667 6.826667 13.653333 6.826667 18.773333 6.826667s11.946667-1.706667 18.773333-6.826667 5.12-13.653333 5.12-18.773333 0-10.24-6.826666-17.066667z"  horiz-adv-x="1024" />

    
    <glyph glyph-name="wenjiantianjia" unicode="&#59165;" d="M218.453333 179.2h102.4v-51.2h-102.4zM218.453333 640h256v-51.2h-256zM730.453333 588.8c-17.066667 0-34.133333-1.706667-51.2-5.12V759.466667c0 18.773333-15.36 34.133333-34.133333 34.133333h-546.133333c-18.773333 0-34.133333-15.36-34.133334-34.133333v-750.933334c0-18.773333 15.36-34.133333 34.133334-34.133333h546.133333c18.773333 0 34.133333 15.36 34.133333 34.133333v124.586667c17.066667-3.413333 34.133333-5.12 51.2-5.12 128 0 230.4 102.4 230.4 230.4S856.746667 588.8 730.453333 588.8z m-102.4-436.906667V25.6h-512V742.4h512v-177.493333c-44.373333-22.186667-80.213333-58.026667-102.4-100.693334V486.4h-307.2v-51.2H512c-8.533333-23.893333-13.653333-49.493333-13.653333-76.8 0-8.533333 0-17.066667 1.706666-25.6H218.453333v-51.2H512c20.48-56.32 61.44-102.4 116.053333-129.706667z m102.4 27.306667c-98.986667 0-179.2 80.213333-179.2 179.2S631.466667 537.6 730.453333 537.6s179.2-80.213333 179.2-179.2S827.733333 179.2 730.453333 179.2zM756.053333 384v102.4h-51.2v-102.4h-102.4v-51.2h102.4v-102.4h51.2v102.4h102.4v51.2z"  horiz-adv-x="1024" />

    
    <glyph glyph-name="bangongdiannao" unicode="&#59166;" d="M844.8 51.2zM281.6 51.2zM179.2 51.2zM870.4 128h51.2v-51.2h-51.2zM307.2 128h512v-51.2H307.2zM204.8 128h51.2v-51.2h-51.2zM102.4 128h51.2v-51.2H102.4zM170.666667 230.4h682.666666c10.24 0 17.066667 6.826667 17.066667 17.066667V725.333333c0 10.24-6.826667 17.066667-17.066667 17.066667H170.666667c-10.24 0-17.066667-6.826667-17.066667-17.066667v-477.866666c0-10.24 6.826667-17.066667 17.066667-17.066667z m34.133333 460.8h614.4v-409.6H204.8V691.2zM256 384h512v-51.2H256zM947.2 179.2h-870.4c-13.653333 0-25.6-11.946667-25.6-25.6v-102.4c0-13.653333 11.946667-25.6 25.6-25.6h870.4c13.653333 0 25.6 11.946667 25.6 25.6v102.4c0 13.653333-11.946667 25.6-25.6 25.6zM153.6 76.8H102.4v51.2h51.2v-51.2z m102.4 0h-51.2v51.2h51.2v-51.2z m563.2 0H307.2v51.2h512v-51.2z m102.4 0h-51.2v51.2h51.2v-51.2z"  horiz-adv-x="1024" />

    
    <glyph glyph-name="baocun" unicode="&#59167;" d="M826.026667 581.973333l-114.346667 114.346667c-29.013333 29.013333-68.266667 44.373333-109.226667 44.373333H256c-56.32 0-102.4-46.08-102.4-102.4v-512c0-56.32 46.08-102.4 102.4-102.4h512c56.32 0 102.4 46.08 102.4 102.4V474.453333c0 40.96-15.36 78.506667-44.373333 107.52zM204.8 486.4h460.8v-307.2H204.8V486.4z m614.4-358.4c0-29.013333-22.186667-51.2-51.2-51.2H256c-29.013333 0-51.2 22.186667-51.2 51.2h494.933333c10.24 0 17.066667 6.826667 17.066667 17.066667V520.533333c0 10.24-6.826667 17.066667-17.066667 17.066667H204.8v102.4c0 29.013333 22.186667 51.2 51.2 51.2h346.453333c27.306667 0 52.906667-10.24 71.68-30.72l114.346667-114.346667c18.773333-18.773333 30.72-44.373333 30.72-71.68V128zM256 640h204.8v-51.2H256zM563.2 384h51.2v-102.4h-51.2zM204.8 486.4v-307.2h460.8V486.4H204.8z m409.6-204.8h-51.2v102.4h51.2v-102.4z"  horiz-adv-x="1024" />

    
    <glyph glyph-name="fangda" unicode="&#59168;" d="M826.026667 112.64L645.12 293.546667h-1.706667c-5.12-6.826667-10.24-13.653333-17.066666-18.773334-6.826667-6.826667-11.946667-11.946667-18.773334-17.066666v-1.706667L790.186667 76.8c6.826667-6.826667 13.653333-6.826667 18.773333-6.826667s11.946667 1.706667 18.773333 6.826667c6.826667 6.826667 6.826667 13.653333 6.826667 18.773333s-1.706667 11.946667-8.533333 17.066667zM861.866667 150.186667L680.96 331.093333c-3.413333 3.413333-5.12 5.12-8.533333 6.826667 59.733333 107.52 46.08 245.76-46.08 337.92-54.613333 54.613333-126.293333 81.92-199.68 81.92S283.306667 728.746667 228.693333 674.133333C119.466667 564.906667 119.466667 385.706667 228.693333 276.48c54.613333-54.613333 126.293333-81.92 199.68-81.92 47.786667 0 95.573333 11.946667 138.24 35.84 1.706667-3.413333 3.413333-5.12 6.826667-8.533333l180.906667-180.906667c15.36-15.36 34.133333-22.186667 54.613333-22.186667s39.253333 6.826667 54.613333 22.186667c29.013333 30.72 29.013333 78.506667-1.706666 109.226667z m-597.333334 162.133333c-90.453333 90.453333-90.453333 235.52 0 325.973333 42.666667 42.666667 100.693333 68.266667 162.133334 68.266667s119.466667-23.893333 162.133333-68.266667c90.453333-90.453333 90.453333-235.52 0-325.973333-42.666667-42.666667-100.693333-68.266667-162.133333-68.266667s-117.76 25.6-162.133334 68.266667zM826.026667 76.8c-6.826667-6.826667-13.653333-6.826667-18.773334-6.826667s-11.946667 1.706667-18.773333 6.826667L609.28 257.706667v1.706666c6.826667 5.12 11.946667 10.24 18.773333 17.066667 6.826667 6.826667 11.946667 11.946667 17.066667 18.773333h1.706667l180.906666-180.906666c6.826667-6.826667 6.826667-13.653333 6.826667-18.773334s-1.706667-11.946667-8.533333-18.773333zM453.973333 602.453333h-51.2v-102.4h-102.4v-51.2h102.4v-102.4h51.2v102.4h102.4v51.2h-102.4z"  horiz-adv-x="1024" />

    
    <glyph glyph-name="cunchu" unicode="&#59169;" d="M452.266667 460.8zM657.066667 614.4zM349.866667 614.4zM426.666667 742.4h-153.6v-256h153.6v102.4h102.4v51.2h-102.4v51.2zM580.266667 588.8v-51.2h-102.4v-51.2h256V742.4H477.866667v-51.2h102.4v-51.2zM785.066667 486.4V793.6H221.866667v-307.2H119.466667v-409.6c0-56.32 46.08-102.4 102.4-102.4h563.2c56.32 0 102.4 46.08 102.4 102.4V486.4h-102.4zM733.866667 742.4v-256H477.866667v51.2h102.4v153.6h-102.4V742.4h256zM273.066667 742.4h153.6v-102.4h102.4v-51.2h-102.4v-102.4h-153.6V742.4z m494.933333-716.8H238.933333c-37.546667 0-68.266667 30.72-68.266666 68.266667V435.2h665.6v-341.333333c0-37.546667-30.72-68.266667-68.266667-68.266667zM682.666667 384H324.266667v-51.2h358.4zM682.666667 691.2h-51.2v-102.4h51.2zM375.466667 691.2h-51.2v-102.4h51.2z"  horiz-adv-x="1024" />

    
    <glyph glyph-name="suoxiao" unicode="&#59170;" d="M861.866667 133.12L680.96 314.026667c-3.413333 3.413333-5.12 5.12-8.533333 6.826666 59.733333 107.52 44.373333 245.76-46.08 336.213334-54.613333 54.613333-126.293333 81.92-199.68 81.92s-143.36-27.306667-199.68-81.92C119.466667 547.84 119.466667 368.64 228.693333 259.413333c54.613333-54.613333 126.293333-81.92 199.68-81.92 47.786667 0 95.573333 11.946667 138.24 35.84 1.706667-3.413333 5.12-5.12 6.826667-8.533333l180.906667-180.906667c15.36-15.36 34.133333-22.186667 54.613333-22.186666s39.253333 6.826667 54.613333 22.186666c29.013333 30.72 29.013333 78.506667-1.706666 109.226667z m-433.493334 93.866667c-61.44 0-119.466667 23.893333-162.133333 68.266666-90.453333 90.453333-90.453333 235.52 0 325.973334 42.666667 42.666667 100.693333 68.266667 162.133333 68.266666s119.466667-23.893333 162.133334-68.266666c90.453333-90.453333 90.453333-235.52 0-325.973334-42.666667-42.666667-100.693333-68.266667-162.133334-68.266666zM826.026667 59.733333c-6.826667-6.826667-13.653333-6.826667-18.773334-6.826666s-11.946667 1.706667-18.773333 6.826666L609.28 240.64v1.706667c6.826667 5.12 13.653333 10.24 18.773333 17.066666s11.946667 11.946667 17.066667 18.773334h1.706667l180.906666-180.906667c6.826667-6.826667 6.826667-13.653333 6.826667-18.773333s-1.706667-11.946667-8.533333-18.773334zM300.373333 482.986667h256v-51.2h-256zM609.28 240.64L790.186667 59.733333c6.826667-6.826667 13.653333-6.826667 18.773333-6.826666s11.946667 1.706667 18.773333 6.826666c6.826667 6.826667 6.826667 13.653333 6.826667 18.773334s-1.706667 11.946667-6.826667 18.773333L645.12 276.48h-1.706667c-5.12-6.826667-10.24-13.653333-17.066666-18.773333s-11.946667-10.24-17.066667-17.066667c0 1.706667 0 0 0 0z"  horiz-adv-x="1024" />

    
    <glyph glyph-name="sousuo" unicode="&#59171;" d="M856.746667 133.12L675.84 314.026667c-3.413333 3.413333-5.12 5.12-8.533333 6.826666 59.733333 107.52 46.08 245.76-46.08 337.92-54.613333 54.613333-126.293333 81.92-199.68 81.92s-143.36-27.306667-199.68-81.92c-109.226667-109.226667-109.226667-288.426667 0-397.653333 54.613333-54.613333 126.293333-81.92 199.68-81.92 47.786667 0 95.573333 11.946667 138.24 35.84 1.706667-3.413333 3.413333-5.12 6.826666-8.533333L747.52 25.6c15.36-15.36 34.133333-22.186667 54.613333-22.186667s39.253333 6.826667 54.613334 22.186667c30.72 29.013333 30.72 76.8 0 107.52z m-433.493334 93.866667c-61.44 0-119.466667 23.893333-162.133333 68.266666-90.453333 90.453333-90.453333 235.52 0 325.973334 42.666667 42.666667 100.693333 68.266667 162.133333 68.266666s119.466667-23.893333 162.133334-68.266666c90.453333-90.453333 90.453333-235.52 0-325.973334-42.666667-42.666667-100.693333-68.266667-162.133334-68.266666zM820.906667 59.733333c-6.826667-6.826667-13.653333-6.826667-18.773334-6.826666s-10.24 0-17.066666 6.826666L604.16 240.64v1.706667c6.826667 5.12 13.653333 10.24 18.773333 17.066666s11.946667 11.946667 17.066667 18.773334h1.706667l180.906666-180.906667c8.533333-10.24 8.533333-27.306667-1.706666-37.546667zM296.96 585.386667l35.84-35.84c23.893333 23.893333 56.32 37.546667 90.453333 37.546666s66.56-13.653333 90.453334-37.546666l35.84 35.84c-34.133333 34.133333-78.506667 52.906667-126.293334 52.906666-47.786667-1.706667-93.866667-18.773333-126.293333-52.906666zM604.16 240.64L785.066667 59.733333c6.826667-6.826667 13.653333-6.826667 18.773333-6.826666s11.946667 1.706667 18.773333 6.826666c10.24 10.24 10.24 25.6 0 35.84L640 276.48h-1.706667c-5.12-6.826667-10.24-13.653333-17.066666-18.773333s-11.946667-10.24-17.066667-17.066667c0 1.706667 0 0 0 0z"  horiz-adv-x="1024" />

    
    <glyph glyph-name="shanchu" unicode="&#59172;" d="M375.466667 742.4h256v-51.2H375.466667zM836.266667 691.2h-153.6V793.6H324.266667v-102.4H68.266667v-51.2h102.4v-512c0-85.333333 68.266667-153.6 153.6-153.6h358.4c85.333333 0 153.6 68.266667 153.6 153.6V640h102.4v51.2h-102.4zM375.466667 742.4h256v-51.2H375.466667V742.4z m409.6-614.4c0-56.32-46.08-102.4-102.4-102.4H324.266667c-56.32 0-102.4 46.08-102.4 102.4V640h563.2v-512zM631.466667 537.6h51.2v-409.6h-51.2zM477.866667 537.6h51.2v-409.6h-51.2zM324.266667 537.6h51.2v-409.6h-51.2z"  horiz-adv-x="1024" />

    
    <glyph glyph-name="youjian" unicode="&#59173;" d="M102.4 189.44l206.506667 167.253333L102.4 561.493333zM921.6 561.493333l-206.506667-204.8L921.6 189.44zM972.8 612.693333V622.933333c0 56.32-46.08 102.4-102.4 102.4H153.6c-56.32 0-102.4-46.08-102.4-102.4v-460.8c0-56.32 46.08-102.4 102.4-102.4h716.8c56.32 0 102.4 46.08 102.4 102.4V612.693333zM153.6 674.133333h716.8c23.893333 0 46.08-17.066667 49.493333-40.96L566.613333 278.186667c-13.653333-15.36-34.133333-22.186667-54.613333-22.186667s-39.253333 8.533333-54.613333 22.186667L104.106667 633.173333C107.52 657.066667 129.706667 674.133333 153.6 674.133333z m155.306667-317.44L102.4 189.44V561.493333l206.506667-204.8zM870.4 110.933333H153.6c-17.066667 0-32.426667 8.533333-40.96 20.48l232.106667 187.733334 76.8-76.8c23.893333-23.893333 56.32-37.546667 90.453333-37.546667s66.56 13.653333 90.453333 37.546667l76.8 76.8 232.106667-187.733334c-8.533333-11.946667-23.893333-20.48-40.96-20.48z m51.2 78.506667l-206.506667 165.546667L921.6 561.493333v-372.053333zM512 290.133333c-42.666667 0-76.8 34.133333-76.8 76.8s34.133333 76.8 76.8 76.8 76.8-34.133333 76.8-76.8-34.133333-76.8-76.8-76.8z m0 102.4c-13.653333 0-25.6-11.946667-25.6-25.6s11.946667-25.6 25.6-25.6 25.6 11.946667 25.6 25.6-11.946667 25.6-25.6 25.6z"  horiz-adv-x="1024" />

    
    <glyph glyph-name="wenjianjiadakaimeiwenjian" unicode="&#59174;" d="M793.6 460.8m-25.6 0a25.6 25.6 0 1 1 51.2 0 25.6 25.6 0 1 1-51.2 0ZM1054.72 640H716.8l-75.093333 75.093333c-17.066667 17.066667-40.96 27.306667-64.853334 27.306667H102.4c-56.32 0-102.4-46.08-102.4-102.4v-512c0-56.32 46.08-102.4 102.4-102.4h745.813333c44.373333 0 83.626667 29.013333 97.28 69.973333L1104.213333 571.733333c10.24 34.133333-13.653333 68.266667-49.493333 68.266667zM51.2 640c0 29.013333 22.186667 51.2 51.2 51.2h474.453333c10.24 0 22.186667-5.12 29.013334-11.946667l39.253333-39.253333H363.52c-35.84 0-66.56-20.48-83.626667-51.2-15.36-30.72-47.786667-51.2-83.626666-51.2H51.2v102.4z m844.8-527.36c-6.826667-22.186667-25.6-35.84-47.786667-35.84H102.4c-29.013333 0-51.2 22.186667-51.2 51.2V486.4h146.773333c54.613333 0 104.106667 30.72 128 80.213333 6.826667 13.653333 20.48 22.186667 37.546667 22.186667h691.2l-158.72-476.16zM793.6 384c42.666667 0 76.8 34.133333 76.8 76.8S836.266667 537.6 793.6 537.6 716.8 503.466667 716.8 460.8s34.133333-76.8 76.8-76.8z m0 102.4c13.653333 0 25.6-11.946667 25.6-25.6s-11.946667-25.6-25.6-25.6-25.6 11.946667-25.6 25.6 11.946667 25.6 25.6 25.6zM197.973333 537.6c35.84 0 66.56 20.48 83.626667 51.2 15.36 30.72 47.786667 51.2 83.626667 51.2h279.893333l-39.253333 39.253333c-8.533333 6.826667-18.773333 11.946667-30.72 11.946667H102.4c-29.013333 0-51.2-22.186667-51.2-51.2v-102.4h146.773333z"  horiz-adv-x="1106" />

    
    <glyph glyph-name="biaodan" unicode="&#59175;" d="M307.2 128h102.4v-51.2h-102.4zM307.2 281.6h409.6v-51.2H307.2zM307.2 435.2h409.6v-51.2H307.2zM307.2 588.8h358.4v-51.2H307.2zM716.8 793.6V844.8H307.2v-51.2H153.6v-870.4h716.8V793.6h-153.6zM358.4 793.6h307.2v-51.2H358.4V793.6z m460.8-819.2H204.8V742.4h102.4v-51.2h409.6V742.4h102.4v-768zM358.4 793.6h307.2v-51.2H358.4z"  horiz-adv-x="1024" />

    


  </font>
</defs>
</svg>
